<svg width="106" height="106" viewBox="0 0 106 106" fill="none" xmlns="http://www.w3.org/2000/svg">
<g filter="url(#filter0_d_53_612)">
<rect x="4" width="98" height="98" rx="49" fill="url(#paint0_linear_53_612)" fill-opacity="0.05" shape-rendering="crispEdges"/>
<rect x="16" y="12" width="74" height="74" rx="37" fill="url(#paint1_linear_53_612)" fill-opacity="0.1"/>
<rect x="16.5" y="12.5" width="73" height="73" rx="36.5" stroke="url(#paint2_linear_53_612)" stroke-opacity="0.2"/>
<path fill-rule="evenodd" clip-rule="evenodd" d="M38.125 45.9291V48.4688C38.125 49.9358 39.3142 51.125 40.7812 51.125H65.2188C66.6858 51.125 67.875 49.9358 67.875 48.4688V45.9291C67.875 44.9146 67.5121 43.9336 66.8518 43.1633L62.1983 37.7341C61.3909 36.7921 60.2121 36.25 58.9715 36.25H47.0285C45.7879 36.25 44.6091 36.7921 43.8017 37.7341L39.1482 43.1633C38.4879 43.9336 38.125 44.9146 38.125 45.9291ZM47.0285 38.375C46.4082 38.375 45.8188 38.6461 45.4151 39.1171L41.4976 43.6875H45.9816C47.4026 43.6875 48.7296 44.3977 49.5178 45.58L49.7503 45.9287C50.1444 46.5199 50.8079 46.875 51.5184 46.875H54.4816C55.1921 46.875 55.8556 46.5199 56.2497 45.9287L56.4822 45.58C57.2704 44.3977 58.5974 43.6875 60.0184 43.6875H64.5024L60.5849 39.1171C60.1812 38.6461 59.5918 38.375 58.9715 38.375H47.0285Z" fill="#CAFF33"/>
<path d="M39.9844 53.25C38.9575 53.25 38.125 54.0825 38.125 55.1094V57.5C38.125 59.8472 40.0278 61.75 42.375 61.75H63.625C65.9722 61.75 67.875 59.8472 67.875 57.5V55.1094C67.875 54.0825 67.0425 53.25 66.0156 53.25H60.0184C58.5974 53.25 57.2704 53.9602 56.4822 55.1425L56.2497 55.4912C55.8556 56.0824 55.1921 56.4375 54.4816 56.4375H51.5184C50.8079 56.4375 50.1444 56.0824 49.7503 55.4912L49.5178 55.1425C48.7296 53.9602 47.4026 53.25 45.9816 53.25H39.9844Z" fill="#CAFF33"/>
</g>
<defs>
<filter id="filter0_d_53_612" x="0" y="0" width="106" height="106" filterUnits="userSpaceOnUse" color-interpolation-filters="sRGB">
<feFlood flood-opacity="0" result="BackgroundImageFix"/>
<feColorMatrix in="SourceAlpha" type="matrix" values="0 0 0 0 0 0 0 0 0 0 0 0 0 0 0 0 0 0 127 0" result="hardAlpha"/>
<feOffset dy="4"/>
<feGaussianBlur stdDeviation="2"/>
<feComposite in2="hardAlpha" operator="out"/>
<feColorMatrix type="matrix" values="0 0 0 0 0 0 0 0 0 0 0 0 0 0 0 0 0 0 0.25 0"/>
<feBlend mode="normal" in2="BackgroundImageFix" result="effect1_dropShadow_53_612"/>
<feBlend mode="normal" in="SourceGraphic" in2="effect1_dropShadow_53_612" result="shape"/>
</filter>
<linearGradient id="paint0_linear_53_612" x1="53" y1="0" x2="53" y2="98" gradientUnits="userSpaceOnUse">
<stop stop-color="#CAFF33"/>
<stop offset="1" stop-color="#CAFF33" stop-opacity="0"/>
</linearGradient>
<linearGradient id="paint1_linear_53_612" x1="53" y1="-37" x2="53" y2="203" gradientUnits="userSpaceOnUse">
<stop stop-color="#CAFF33"/>
<stop offset="0.467671" stop-color="#CAFF33" stop-opacity="0"/>
</linearGradient>
<linearGradient id="paint2_linear_53_612" x1="53" y1="-116.5" x2="53" y2="153" gradientUnits="userSpaceOnUse">
<stop stop-color="#CAFF33"/>
<stop offset="0.716291" stop-color="#CAFF33" stop-opacity="0"/>
</linearGradient>
</defs>
</svg>
